<?xml version="1.0" encoding="utf-8"?>
<!-- Generator: Adobe Illustrator 16.0.3, SVG Export Plug-In . SVG Version: 6.00 Build 0)  -->
<!DOCTYPE svg PUBLIC "-//W3C//DTD SVG 1.1//EN" "http://www.w3.org/Graphics/SVG/1.1/DTD/svg11.dtd">
<svg version="1.1" id="Layer_1" xmlns="http://www.w3.org/2000/svg" xmlns:xlink="http://www.w3.org/1999/xlink" x="0px" y="0px"
	 width="80.5px" height="40px" viewBox="0 0 80.5 40" enable-background="new 0 0 80.5 40" xml:space="preserve">
<path fill="#FFFFFF" d="M30.188,27c0,0.828-0.672,1.5-1.5,1.5H11.312c-0.828,0-1.5-0.672-1.5-1.5l0,0c0-0.828,0.672-1.5,1.5-1.5
	h17.375C29.516,25.5,30.188,26.172,30.188,27L30.188,27z"/>
<path fill="#FFFFFF" d="M71.131,11.865c0.746,0.737,0.754,1.941,0.017,2.687L55.68,30.208c-0.737,0.745-1.94,0.754-2.687,0.017l0,0
	c-0.746-0.737-0.754-1.941-0.017-2.687l15.468-15.657C69.182,11.134,70.384,11.126,71.131,11.865L71.131,11.865z"/>
<path fill="#FFFFFF" d="M52.993,11.876c-0.746,0.737-0.754,1.94-0.017,2.687L68.444,30.22c0.737,0.746,1.939,0.753,2.687,0.016l0,0
	c0.746-0.737,0.754-1.94,0.017-2.687L55.68,11.893C54.942,11.146,53.739,11.137,52.993,11.876L52.993,11.876z"/>
<path fill="#FFFFFF" d="M30.188,20c0,0.828-0.672,1.5-1.5,1.5H11.312c-0.828,0-1.5-0.672-1.5-1.5l0,0c0-0.828,0.672-1.5,1.5-1.5
	h17.375C29.516,18.5,30.188,19.172,30.188,20L30.188,20z"/>
<path fill="#FFFFFF" d="M30.188,13c0,0.828-0.672,1.5-1.5,1.5H11.312c-0.828,0-1.5-0.672-1.5-1.5l0,0c0-0.828,0.672-1.5,1.5-1.5
	h17.375C29.516,11.5,30.188,12.172,30.188,13L30.188,13z"/>
</svg>
