<?xml version="1.0" encoding="utf-8"?>
<!-- Generator: Adobe Illustrator 16.0.3, SVG Export Plug-In . SVG Version: 6.00 Build 0)  -->
<!DOCTYPE svg PUBLIC "-//W3C//DTD SVG 1.1//EN" "http://www.w3.org/Graphics/SVG/1.1/DTD/svg11.dtd">
<svg version="1.1" xmlns="http://www.w3.org/2000/svg" xmlns:xlink="http://www.w3.org/1999/xlink" x="0px" y="0px" width="51.2px"
	 height="22.738px" viewBox="0 0 51.2 22.738" enable-background="new 0 0 51.2 22.738" xml:space="preserve">
<g id="Layer_2">
</g>
<g id="Layer_1">
	<path opacity="0.7" fill="#214154" d="M47.398,0H32.255c-2.091,0-3.799,1.699-3.799,3.797v15.148c0,2.092,1.708,3.793,3.799,3.793
		h15.144c2.101,0,3.802-1.701,3.802-3.793V3.797C51.2,1.699,49.499,0,47.398,0z M47.063,7.592c0.004,0.163,0.012,0.328,0.012,0.489
		c0,5.018-3.747,10.824-10.631,10.824c-2.11,0-4.075-0.633-5.727-1.712c0.295,0.04,0.598,0.046,0.896,0.046
		c1.747,0,3.363-0.603,4.642-1.629c-1.63-0.025-3.019-1.121-3.491-2.632c0.235,0.047,0.456,0.067,0.708,0.067
		c0.34,0,0.67-0.047,0.97-0.135c-1.701-0.351-2.987-1.884-2.987-3.732c0-0.01,0-0.021,0-0.039c0.504,0.29,1.083,0.449,1.693,0.481
		c-1.009-0.688-1.672-1.852-1.672-3.175c0-0.689,0.182-1.348,0.521-1.901c1.833,2.3,4.591,3.806,7.695,3.963
		c-0.075-0.279-0.099-0.567-0.099-0.861c0-2.097,1.672-3.8,3.734-3.8c1.074,0,2.041,0.454,2.729,1.191
		c0.857-0.157,1.648-0.49,2.368-0.917c-0.276,0.889-0.871,1.636-1.634,2.1c0.747-0.087,1.472-0.301,2.142-0.594
		C48.425,6.386,47.804,7.06,47.063,7.592z"/>
	<path opacity="0.7" fill="#214154" d="M19.895,0H2.838C1.283,0,0,1.278,0,2.843v17.059c0,1.567,1.283,2.833,2.838,2.833h8.626
		v-8.152h-2.72V11.04h2.72V9.258c0-2.745,2.033-4.888,4.622-4.888h2.504v4.005h-2.243c-0.591,0-0.769,0.336-0.769,0.807v1.858h3.012
		v3.543h-3.012v8.155h4.314c1.562,0,2.849-1.27,2.849-2.834V2.843C22.743,1.278,21.454,0,19.895,0z"/>
</g>
</svg>
